<svg width="15" height="17" viewBox="0 0 15 17" fill="none" xmlns="http://www.w3.org/2000/svg">
<path d="M9.51699 15.6426C8.45212 16.8148 6.57835 16.826 5.49937 15.6667C5.01743 15.1489 5.39175 14.3194 6.1093 14.3151L8.89073 14.2984C9.60828 14.2941 9.99261 15.1191 9.51699 15.6426Z" fill="white"/>
<path fill-rule="evenodd" clip-rule="evenodd" d="M12.1366 14.2029C11.575 14.6393 10.7819 14.4951 10.3065 13.9685L8.79607 12.2953C8.18733 11.6209 7.11879 11.6209 6.51005 12.2953L4.87535 14.1061C4.4119 14.6195 3.64468 14.7718 3.08191 14.3664C1.21373 13.0206 0 10.8433 0 8.38638C0 4.29971 3.35786 0.986816 7.5 0.986816C11.6421 0.986816 15 4.29971 15 8.38638C15 10.7462 13.8803 12.848 12.1366 14.2029ZM5.23576 9.21526L6.65333 10.8703C7.10357 11.396 7.89643 11.396 8.34667 10.8703L9.76424 9.21526C10.2193 8.68399 9.98465 7.84315 9.32603 7.64491C8.13337 7.28592 6.86663 7.28592 5.67397 7.64491C5.01535 7.84315 4.78071 8.68399 5.23576 9.21526ZM5.27789 5.70899C5.27789 6.32264 4.78043 6.8201 4.16678 6.8201C3.55313 6.8201 3.05566 6.32264 3.05566 5.70899C3.05566 5.09534 3.55313 4.59787 4.16678 4.59787C4.78043 4.59787 5.27789 5.09534 5.27789 5.70899ZM10.8334 6.8201C11.4471 6.8201 11.9446 6.32264 11.9446 5.70899C11.9446 5.09534 11.4471 4.59787 10.8334 4.59787C10.2198 4.59787 9.72233 5.09534 9.72233 5.70899C9.72233 6.32264 10.2198 6.8201 10.8334 6.8201Z" fill="white"/>
</svg>
