<svg width="24" height="24" viewBox="0 0 24 24" fill="none" xmlns="http://www.w3.org/2000/svg">
<g clip-path="url(#clip0_1256_63)">
<path d="M16 16L12 12L8 16" stroke="#0D3B66" stroke-width="2" stroke-linecap="round" stroke-linejoin="round"/>
<path d="M12 12V21" stroke="#0D3B66" stroke-width="2" stroke-linecap="round" stroke-linejoin="round"/>
<path d="M20.39 18.39C21.3653 17.8583 22.1358 17.0169 22.5799 15.9986C23.0239 14.9804 23.1162 13.8432 22.8422 12.7667C22.5682 11.6901 21.9435 10.7355 21.0667 10.0534C20.1899 9.37138 19.1109 9.00073 18 9H16.74C16.4373 7.82924 15.8732 6.74233 15.0899 5.82099C14.3067 4.89965 13.3248 4.16785 12.2181 3.68061C11.1114 3.19336 9.90855 2.96336 8.70012 3.00788C7.49168 3.05241 6.30907 3.3703 5.24118 3.93766C4.17328 4.50503 3.24791 5.3071 2.53462 6.28358C1.82133 7.26006 1.33869 8.38554 1.12298 9.57539C0.907268 10.7653 0.964104 11.9885 1.28921 13.1533C1.61432 14.318 2.19924 15.3939 3 16.3" stroke="#0D3B66" stroke-width="2" stroke-linecap="round" stroke-linejoin="round"/>
<path d="M16 16L12 12L8 16" stroke="#0D3B66" stroke-width="2" stroke-linecap="round" stroke-linejoin="round"/>
</g>
<defs>
<clipPath id="clip0_1256_63">
<rect width="24" height="24" fill="white"/>
</clipPath>
</defs>
</svg>
